<svg class="hero-icon" xmlns="http://www.w3.org/2000/svg" width="88" height="88" viewBox="0 0 88 88"
    fill="none">
    <path d="M23 14H3V64H85V14H81.5H70" stroke="#F28A48" stroke-width="2" stroke-linecap="round"
        stroke-linejoin="round" />
    <path d="M36 64H52L56 79H32L36 64Z" stroke="#F28A48" stroke-width="2" stroke-linecap="round"
        stroke-linejoin="round" />
    <path d="M24 84C24 81.2386 26.2386 79 29 79H59C61.7614 79 64 81.2386 64 84V85H24V84Z"
        stroke="#F28A48" stroke-width="2" stroke-linecap="round" stroke-linejoin="round" />
    <path d="M3 56H85" stroke="#F28A48" stroke-width="2" stroke-linecap="round"
        stroke-linejoin="round" />
    <path d="M15 49H73" stroke="#f0a678" stroke-width="2" stroke-linecap="round"
        stroke-linejoin="round" />
    <path d="M30 39H58" stroke="#f0a678" stroke-width="2" stroke-linecap="round"
        stroke-linejoin="round" />
    <path d="M30 44H58" stroke="#f0a678" stroke-width="2" stroke-linecap="round"
        stroke-linejoin="round" />
    <circle cx="80" cy="60" r="1" fill="#F28A48" />
    <circle cx="76" cy="60" r="1" fill="#F28A48" />
    <circle cx="72" cy="60" r="1" fill="#F28A48" />
    <path d="M65 49V3H23V49" stroke="#f0a678" stroke-width="2" stroke-linecap="round"
        stroke-linejoin="round" />
    <circle cx="44" cy="21" r="13" stroke="#f0a678" stroke-width="2" stroke-linecap="round"
        stroke-linejoin="round" />
    <path
        d="M39 25.3077V25.3077C39 27.3469 40.6531 29 42.6923 29H45.8417C47.586 29 49 27.586 49 25.8417V25.8417C49 24.745 48.431 23.7268 47.497 23.152L44 21"
        stroke="#f0a678" stroke-width="2" stroke-linecap="round" stroke-linejoin="round" />
    <path
        d="M49 16.6923V16.6923C49 14.6531 47.3469 13 45.3077 13H42.1583C40.414 13 39 14.414 39 16.1583V16.1583C39 17.255 39.569 18.2732 40.503 18.848L44 21"
        stroke="#f0a678" stroke-width="2" stroke-linecap="round" stroke-linejoin="round" />
    <path d="M44 11L44 20" stroke="#f0a678" stroke-width="2" stroke-linecap="round"
        stroke-linejoin="round" />
    <path d="M44 24L44 31" stroke="#f0a678" stroke-width="2" stroke-linecap="round"
        stroke-linejoin="round" />
</svg>